<svg xmlns="http://www.w3.org/2000/svg" viewBox="0 0 64 64">
  <defs>
    <linearGradient id="bg" x1="0%" y1="0%" x2="100%" y2="100%">
      <stop offset="0%" stop-color="#d9c2ec"/>
      <stop offset="100%" stop-color="#ffc6d5"/>
    </linearGradient>
    <radialGradient id="eyeGrad" cx="50%" cy="50%" r="50%">
      <stop offset="0%" stop-color="#b497d6"/>
      <stop offset="100%" stop-color="#6e4ca8"/>
    </radialGradient>
  </defs>
  <rect width="64" height="64" rx="14" fill="url(#bg)"/>
  <ellipse cx="32" cy="44" rx="18" ry="12" fill="#fff8fb"/>
  <path d="M22 38 Q32 35 42 38 L43 53 Q32 56 21 53 Z" fill="#a8c3e0"/>
  <circle cx="28" cy="42" r="1" fill="#f7d4e3"/>
  <circle cx="36" cy="42" r="1" fill="#f7d4e3"/>
  <ellipse cx="32" cy="26" rx="20" ry="18" fill="#fff8fb"/>
  <ellipse cx="17" cy="13" rx="5" ry="10" fill="#fff8fb" transform="rotate(-20 17 13)"/>
  <ellipse cx="47" cy="13" rx="5" ry="10" fill="#fff8fb" transform="rotate(20 47 13)"/>
  <ellipse cx="18" cy="15" rx="2.5" ry="5" fill="#ffd5e4" transform="rotate(-20 18 15)"/>
  <ellipse cx="46" cy="15" rx="2.5" ry="5" fill="#ffd5e4" transform="rotate(20 46 15)"/>
  <g fill="#fff">
    <path d="M19 8 L21 12 L23 8 Z"/>
    <path d="M41 8 L43 12 L45 8 Z"/>
  </g>
  <ellipse cx="22" cy="32" rx="3.5" ry="2" fill="#ffc6d5" opacity="0.8"/>
  <ellipse cx="42" cy="32" rx="3.5" ry="2" fill="#ffc6d5" opacity="0.8"/>
  <ellipse cx="25" cy="26" rx="4" ry="5" fill="url(#eyeGrad)"/>
  <ellipse cx="39" cy="26" rx="4" ry="5" fill="url(#eyeGrad)"/>
  <circle cx="26" cy="24" r="1.2" fill="#fff"/>
  <circle cx="40" cy="24" r="1.2" fill="#fff"/>
  <path d="M27 36 Q32 39 37 36" stroke="#a87cae" stroke-width="1.4" fill="none" stroke-linecap="round"/>
</svg>